HIERARCHY
ROOT Hips
{
	OFFSET -36.480297 -30.199697 87.527466
	CHANNELS 6 Xposition Yposition Zposition Zrotation Yrotation Xrotation
	JOINT Spine
	{
		OFFSET 0.000000 2.080109 8.814247
		CHANNELS 6 Xposition Yposition Zposition Zrotation Yrotation Xrotation
		JOINT Spine1
		{
			OFFSET 0.000000 0.000000 8.844139
			CHANNELS 6 Xposition Yposition Zposition Zrotation Yrotation Xrotation
			JOINT Spine2
			{
				OFFSET 0.000000 0.000002 11.682266
				CHANNELS 6 Xposition Yposition Zposition Zrotation Yrotation Xrotation
				JOINT Spine3
				{
					OFFSET 0.000000 0.000000 11.746704
					CHANNELS 6 Xposition Yposition Zposition Zrotation Yrotation Xrotation
					JOINT Neck
					{
						OFFSET 0.000000 0.000002 17.658264
						CHANNELS 6 Xposition Yposition Zposition Zrotation Yrotation Xrotation
						JOINT Neck1
						{
							OFFSET 0.000000 0.000000 5.101517
							CHANNELS 6 Xposition Yposition Zposition Zrotation Yrotation Xrotation
							JOINT Head
							{
								OFFSET 0.000000 0.000000 5.101517
								CHANNELS 6 Xposition Yposition Zposition Zrotation Yrotation Xrotation
								JOINT HeadEnd
								{
									OFFSET 0.000000 0.000002 11.655090
									CHANNELS 6 Xposition Yposition Zposition Zrotation Yrotation Xrotation
									End Site
									{
										OFFSET 0.000000 0.000000 0.100006
									}
								}
							}
						}
					}
					JOINT RightShoulder
					{
						OFFSET -2.625389 0.000002 11.175217
						CHANNELS 6 Xposition Yposition Zposition Zrotation Yrotation Xrotation
						JOINT RightArm
						{
							OFFSET 0.000000 0.000000 10.434723
							CHANNELS 6 Xposition Yposition Zposition Zrotation Yrotation Xrotation
							JOINT RightForeArm
							{
								OFFSET 0.000000 0.000002 29.628418
								CHANNELS 6 Xposition Yposition Zposition Zrotation Yrotation Xrotation
								JOINT RightHand
								{
									OFFSET 0.000000 0.000002 22.857605
									CHANNELS 6 Xposition Yposition Zposition Zrotation Yrotation Xrotation
									JOINT RightHandThumb1
									{
										OFFSET -2.867321 -2.944292 3.959564
										CHANNELS 6 Xposition Yposition Zposition Zrotation Yrotation Xrotation
										JOINT RightHandThumb2
										{
											OFFSET 0.000000 0.000000 3.350403
											CHANNELS 6 Xposition Yposition Zposition Zrotation Yrotation Xrotation
											JOINT RightHandThumb3
											{
												OFFSET 0.000000 0.000000 3.756516
												CHANNELS 6 Xposition Yposition Zposition Zrotation Yrotation Xrotation
												JOINT RightHandThumb4
												{
													OFFSET 0.000000 0.000002 3.147339
													CHANNELS 6 Xposition Yposition Zposition Zrotation Yrotation Xrotation
													End Site
													{
														OFFSET 0.000000 0.000000 0.100006
													}
												}
											}
										}
									}
									JOINT RightHandIndex1
									{
										OFFSET -0.086754 -2.345280 10.030899
										CHANNELS 6 Xposition Yposition Zposition Zrotation Yrotation Xrotation
										JOINT RightHandIndex2
										{
											OFFSET 0.000000 0.000002 4.061096
											CHANNELS 6 Xposition Yposition Zposition Zrotation Yrotation Xrotation
											JOINT RightHandIndex3
											{
												OFFSET 0.000000 0.000000 3.248871
												CHANNELS 6 Xposition Yposition Zposition Zrotation Yrotation Xrotation
												JOINT RightHandIndex4
												{
													OFFSET 0.000000 0.000000 2.639709
													CHANNELS 6 Xposition Yposition Zposition Zrotation Yrotation Xrotation
													End Site
													{
														OFFSET 0.000000 0.000000 0.100006
													}
												}
											}
										}
									}
									JOINT RightHandMiddle1
									{
										OFFSET 0.104103 -0.006767 9.502945
										CHANNELS 6 Xposition Yposition Zposition Zrotation Yrotation Xrotation
										JOINT RightHandMiddle2
										{
											OFFSET 0.000000 0.000002 4.568726
											CHANNELS 6 Xposition Yposition Zposition Zrotation Yrotation Xrotation
											JOINT RightHandMiddle3
											{
												OFFSET 0.000000 0.000000 3.654984
												CHANNELS 6 Xposition Yposition Zposition Zrotation Yrotation Xrotation
												JOINT RightHandMiddle4
												{
													OFFSET 0.000000 0.000000 2.741241
													CHANNELS 6 Xposition Yposition Zposition Zrotation Yrotation Xrotation
													End Site
													{
														OFFSET 0.000000 0.000000 0.100006
													}
												}
											}
										}
									}
									JOINT RightHandRing1
									{
										OFFSET 0.086754 2.267443 8.921707
										CHANNELS 6 Xposition Yposition Zposition Zrotation Yrotation Xrotation
										JOINT RightHandRing2
										{
											OFFSET 0.000000 0.000002 4.061096
											CHANNELS 6 Xposition Yposition Zposition Zrotation Yrotation Xrotation
											JOINT RightHandRing3
											{
												OFFSET 0.000000 0.000000 3.654984
												CHANNELS 6 Xposition Yposition Zposition Zrotation Yrotation Xrotation
												JOINT RightHandRing4
												{
													OFFSET 0.000000 0.000000 2.741241
													CHANNELS 6 Xposition Yposition Zposition Zrotation Yrotation Xrotation
													End Site
													{
														OFFSET 0.000000 0.000000 0.100006
													}
												}
											}
										}
									}
									JOINT RightHandPinky1
									{
										OFFSET -0.173504 4.467199 7.976990
										CHANNELS 6 Xposition Yposition Zposition Zrotation Yrotation Xrotation
										JOINT RightHandPinky2
										{
											OFFSET 0.000000 0.000000 3.350403
											CHANNELS 6 Xposition Yposition Zposition Zrotation Yrotation Xrotation
											JOINT RightHandPinky3
											{
												OFFSET 0.000000 0.000002 2.842758
												CHANNELS 6 Xposition Yposition Zposition Zrotation Yrotation Xrotation
												JOINT RightHandPinky4
												{
													OFFSET 0.000000 0.000000 2.639709
													CHANNELS 6 Xposition Yposition Zposition Zrotation Yrotation Xrotation
													End Site
													{
														OFFSET 0.000000 0.000000 0.100006
													}
												}
											}
										}
									}
									JOINT RightForeArmEnd
									{
										OFFSET 0.000000 0.000000 0.000000
										CHANNELS 6 Xposition Yposition Zposition Zrotation Yrotation Xrotation
										End Site
										{
											OFFSET 0.000000 0.000000 0.100006
										}
									}
								}
								JOINT RightArmEnd
								{
									OFFSET 0.000000 0.000000 0.000000
									CHANNELS 6 Xposition Yposition Zposition Zrotation Yrotation Xrotation
									End Site
									{
										OFFSET 0.000000 0.000000 0.100006
									}
								}
							}
						}
					}
					JOINT LeftShoulder
					{
						OFFSET 2.625389 0.000002 11.175217
						CHANNELS 6 Xposition Yposition Zposition Zrotation Yrotation Xrotation
						JOINT LeftArm
						{
							OFFSET 0.000000 0.000000 10.813629
							CHANNELS 6 Xposition Yposition Zposition Zrotation Yrotation Xrotation
							JOINT LeftForeArm
							{
								OFFSET 0.000000 0.000002 28.724777
								CHANNELS 6 Xposition Yposition Zposition Zrotation Yrotation Xrotation
								JOINT LeftHand
								{
									OFFSET 0.644382 0.328873 25.716171
									CHANNELS 6 Xposition Yposition Zposition Zrotation Yrotation Xrotation
									JOINT LeftHandThumb1
									{
										OFFSET 2.867323 -2.944290 3.959564
										CHANNELS 6 Xposition Yposition Zposition Zrotation Yrotation Xrotation
										JOINT LeftHandThumb2
										{
											OFFSET 0.000000 0.000000 3.350403
											CHANNELS 6 Xposition Yposition Zposition Zrotation Yrotation Xrotation
											JOINT LeftHandThumb3
											{
												OFFSET 0.000000 0.000002 3.756516
												CHANNELS 6 Xposition Yposition Zposition Zrotation Yrotation Xrotation
												JOINT LeftHandThumb4
												{
													OFFSET 0.000000 0.000000 3.100006
													CHANNELS 6 Xposition Yposition Zposition Zrotation Yrotation Xrotation
													End Site
													{
														OFFSET 0.000000 0.000000 0.100006
													}
												}
											}
										}
									}
									JOINT LeftHandIndex1
									{
										OFFSET 0.086754 -2.345278 10.030899
										CHANNELS 6 Xposition Yposition Zposition Zrotation Yrotation Xrotation
										JOINT LeftHandIndex2
										{
											OFFSET 0.000000 0.000000 4.061096
											CHANNELS 6 Xposition Yposition Zposition Zrotation Yrotation Xrotation
											JOINT LeftHandIndex3
											{
												OFFSET 0.000000 0.000000 3.248871
												CHANNELS 6 Xposition Yposition Zposition Zrotation Yrotation Xrotation
												JOINT LeftHandIndex4
												{
													OFFSET 0.000000 0.000000 2.639709
													CHANNELS 6 Xposition Yposition Zposition Zrotation Yrotation Xrotation
													End Site
													{
														OFFSET 0.000000 0.000000 0.100006
													}
												}
											}
										}
									}
									JOINT LeftHandMiddle1
									{
										OFFSET -0.104103 -0.006767 9.502945
										CHANNELS 6 Xposition Yposition Zposition Zrotation Yrotation Xrotation
										JOINT LeftHandMiddle2
										{
											OFFSET 0.000000 0.000002 4.568726
											CHANNELS 6 Xposition Yposition Zposition Zrotation Yrotation Xrotation
											JOINT LeftHandMiddle3
											{
												OFFSET 0.000000 0.000000 3.654984
												CHANNELS 6 Xposition Yposition Zposition Zrotation Yrotation Xrotation
												JOINT LeftHandMiddle4
												{
													OFFSET 0.000000 0.000000 2.741241
													CHANNELS 6 Xposition Yposition Zposition Zrotation Yrotation Xrotation
													End Site
													{
														OFFSET 0.000000 0.000000 0.100006
													}
												}
											}
										}
									}
									JOINT LeftHandRing1
									{
										OFFSET -0.086754 2.267443 8.921707
										CHANNELS 6 Xposition Yposition Zposition Zrotation Yrotation Xrotation
										JOINT LeftHandRing2
										{
											OFFSET 0.000000 0.000002 4.061096
											CHANNELS 6 Xposition Yposition Zposition Zrotation Yrotation Xrotation
											JOINT LeftHandRing3
											{
												OFFSET 0.000000 0.000000 3.654984
												CHANNELS 6 Xposition Yposition Zposition Zrotation Yrotation Xrotation
												JOINT LeftHandRing4
												{
													OFFSET 0.000000 0.000000 2.741241
													CHANNELS 6 Xposition Yposition Zposition Zrotation Yrotation Xrotation
													End Site
													{
														OFFSET 0.000000 0.000000 0.100006
													}
												}
											}
										}
									}
									JOINT LeftHandPinky1
									{
										OFFSET 0.173504 4.467199 7.976990
										CHANNELS 6 Xposition Yposition Zposition Zrotation Yrotation Xrotation
										JOINT LeftHandPinky2
										{
											OFFSET 0.000000 0.000002 3.350403
											CHANNELS 6 Xposition Yposition Zposition Zrotation Yrotation Xrotation
											JOINT LeftHandPinky3
											{
												OFFSET 0.000000 0.000000 2.842758
												CHANNELS 6 Xposition Yposition Zposition Zrotation Yrotation Xrotation
												JOINT LeftHandPinky4
												{
													OFFSET 0.000000 0.000000 2.639709
													CHANNELS 6 Xposition Yposition Zposition Zrotation Yrotation Xrotation
													End Site
													{
														OFFSET 0.000000 0.000000 0.100006
													}
												}
											}
										}
									}
									JOINT LeftForeArmEnd
									{
										OFFSET 0.000000 0.000000 0.000000
										CHANNELS 6 Xposition Yposition Zposition Zrotation Yrotation Xrotation
										End Site
										{
											OFFSET 0.000000 0.000000 0.100006
										}
									}
								}
								JOINT LeftArmEnd
								{
									OFFSET 0.000000 0.000000 0.000000
									CHANNELS 6 Xposition Yposition Zposition Zrotation Yrotation Xrotation
									End Site
									{
										OFFSET 0.000000 0.000000 0.100006
									}
								}
							}
						}
					}
				}
			}
		}
	}
	JOINT RightUpLeg
	{
		OFFSET -11.289944 0.000000 0.000000
		CHANNELS 6 Xposition Yposition Zposition Zrotation Yrotation Xrotation
		JOINT RightLeg
		{
			OFFSET 0.000000 -0.000002 -38.200321
			CHANNELS 6 Xposition Yposition Zposition Zrotation Yrotation Xrotation
			JOINT RightFoot
			{
				OFFSET 0.000000 -0.000004 -39.900856
				CHANNELS 6 Xposition Yposition Zposition Zrotation Yrotation Xrotation
				JOINT RightToeBase
				{
					OFFSET 0.000000 -15.261639 0.000002
					CHANNELS 6 Xposition Yposition Zposition Zrotation Yrotation Xrotation
					JOINT RightToeBaseEnd
					{
						OFFSET 0.000000 -7.370708 0.000000
						CHANNELS 6 Xposition Yposition Zposition Zrotation Yrotation Xrotation
						End Site
						{
							OFFSET 0.000000 0.000000 0.100000
						}
					}
				}
				JOINT RightLegEnd
				{
					OFFSET 0.000000 0.000000 0.000000
					CHANNELS 6 Xposition Yposition Zposition Zrotation Yrotation Xrotation
					End Site
					{
						OFFSET 0.000000 0.000000 0.100000
					}
				}
			}
			JOINT RightUpLegEnd
			{
				OFFSET 0.000000 0.000000 0.000000
				CHANNELS 6 Xposition Yposition Zposition Zrotation Yrotation Xrotation
				End Site
				{
					OFFSET 0.000000 0.000000 0.099998
				}
			}
		}
	}
	JOINT LeftUpLeg
	{
		OFFSET 11.315662 0.000000 0.000000
		CHANNELS 6 Xposition Yposition Zposition Zrotation Yrotation Xrotation
		JOINT LeftLeg
		{
			OFFSET 0.000000 -0.000002 -38.200321
			CHANNELS 6 Xposition Yposition Zposition Zrotation Yrotation Xrotation
			JOINT LeftFoot
			{
				OFFSET 0.000000 -0.000004 -39.900856
				CHANNELS 6 Xposition Yposition Zposition Zrotation Yrotation Xrotation
				JOINT LeftToeBase
				{
					OFFSET 0.000000 -15.261639 0.000002
					CHANNELS 6 Xposition Yposition Zposition Zrotation Yrotation Xrotation
					JOINT LeftToeBaseEnd
					{
						OFFSET 0.000000 -7.539997 0.000000
						CHANNELS 6 Xposition Yposition Zposition Zrotation Yrotation Xrotation
						End Site
						{
							OFFSET 0.000000 0.000000 0.100000
						}
					}
				}
				JOINT LeftLegEnd
				{
					OFFSET 0.000000 0.000000 0.000000
					CHANNELS 6 Xposition Yposition Zposition Zrotation Yrotation Xrotation
					End Site
					{
						OFFSET 0.000000 0.000000 0.100000
					}
				}
			}
			JOINT LeftUpLegEnd
			{
				OFFSET 0.000000 0.000000 0.000000
				CHANNELS 6 Xposition Yposition Zposition Zrotation Yrotation Xrotation
				End Site
				{
					OFFSET 0.000000 0.000000 0.099998
				}
			}
		}
	}
}
MOTION
Frames: 2
Frame Time: 0.016667
3.544373 -7.446995 72.281250 23.417698 0.983182 14.515911 -0.000002 2.080106 8.814238 -0.453198 -3.943887 15.837342 0.000001 -0.000002 8.844146 -0.723249 -2.217979 16.487882 -0.000005 -0.000001 11.682274 1.245417 -1.468890 8.308025 -0.000004 -0.000008 11.746733 1.204378 0.047186 1.503358 0.000001 -0.000008 17.658266 -2.430622 -7.228403 25.949946 0.000003 0.000001 5.101512 -1.526536 1.914885 4.764363 -0.000007 0.000002 5.101533 3.736562 -2.671907 -16.938039 -0.000006 0.000002 11.655106 0.000000 -0.000000 0.000000 -2.625401 -0.000015 11.175210 14.063520 -79.565140 -0.269024 -0.000005 0.000007 10.434733 -69.422091 -11.588283 47.490975 0.000002 -0.000012 29.628422 4.144646 2.206079 71.595429 -0.000001 -0.000004 22.857635 -18.968818 41.224573 14.310814 -2.867321 -2.944299 3.959576 31.491106 -19.956122 47.542300 0.000007 -0.000011 3.350409 -18.670542 10.260383 -32.718850 -0.000000 0.000005 3.756529 -12.336408 8.289196 -22.315621 -0.000006 0.000003 3.147339 0.000000 -0.000000 -0.000001 -0.086761 -2.345291 10.030922 -17.678797 -34.603398 21.871563 -0.000006 0.000003 4.061133 -0.435179 -26.355306 3.992661 -0.000000 -0.000001 3.248860 -0.935171 -26.355226 3.992639 0.000003 0.000000 2.639709 0.000001 0.000001 0.000002 0.104094 -0.006780 9.502987 -10.579736 -32.070416 15.827304 -0.000008 0.000001 4.568740 0.229840 -23.441704 1.302103 -0.000003 -0.000005 3.654976 -0.270140 -23.441706 1.302119 0.000000 -0.000004 2.741225 -0.000001 -0.000000 0.000001 0.086736 2.267435 8.921756 0.193492 -25.756935 9.539032 -0.000021 0.000011 4.061115 -0.825742 -17.704641 -1.118762 -0.000014 0.000005 3.655014 0.174239 -17.704554 -1.118762 -0.000001 0.000002 2.741241 -0.000002 -0.000000 0.000001 -0.173504 4.467195 7.977027 10.431168 -18.847656 4.449511 -0.000011 -0.000000 3.350424 -1.746374 -12.110902 -2.390412 0.000001 -0.000003 2.842770 0.253635 -12.110275 -2.390435 -0.000000 0.000001 2.639708 0.000003 -0.000002 0.000001 -0.000003 -0.000003 0.000016 0.000000 -0.000002 -0.000004 -0.000008 0.000001 0.000028 -0.000002 -0.000003 0.000000 2.625409 -0.000012 11.175223 -12.187677 72.950778 -0.762993 0.000008 0.000004 10.813633 63.032380 -2.367618 62.943909 -0.000003 -0.000021 28.724766 -0.102705 -1.399952 67.579346 0.644382 0.328855 25.716171 25.510241 -43.291720 10.123025 2.867329 -2.944281 3.959577 -31.510948 18.686310 49.385242 0.000001 0.000010 3.350404 15.831320 -9.532162 -28.101420 -0.000001 -0.000005 3.756510 10.488699 -7.464893 -19.195027 0.000002 -0.000005 3.100007 0.000000 0.000000 -0.000000 0.086762 -2.345283 10.030936 -3.620144 33.433363 3.106026 0.000007 0.000000 4.061099 -0.192906 22.952074 -3.412100 0.000010 -0.000001 3.248888 -0.692902 22.951995 -3.412090 0.000000 0.000000 2.639708 -0.000001 -0.000002 0.000001 -0.104104 -0.006776 9.502954 1.674179 29.674167 6.582891 -0.000003 0.000004 4.568737 0.290818 20.766321 -1.138868 -0.000001 -0.000000 3.655003 -0.208871 20.766328 -1.139147 0.000004 0.000002 2.741240 0.000001 -0.000002 -0.000001 -0.086749 2.267445 8.921740 9.149459 22.441063 11.863051 0.000000 -0.000000 4.061116 -0.848326 16.540761 1.040941 0.000007 -0.000008 3.654994 0.151276 16.541552 1.040854 0.000005 0.000007 2.741256 0.000000 -0.000002 -0.000000 0.173506 4.467204 7.977018 16.260773 14.148750 14.476106 -0.000001 0.000007 3.350412 -1.756225 11.877727 2.343097 0.000001 0.000000 2.842761 0.243779 11.877719 2.343101 -0.000004 -0.000003 2.639709 0.000002 -0.000002 -0.000001 -0.000001 -0.000005 0.000045 -0.000000 -0.000000 0.000001 0.000000 -0.000005 0.000016 -0.000003 0.000003 0.000002 -11.289942 0.000005 -0.000015 -19.238782 2.053067 -57.941847 -0.000000 -0.000001 -38.200321 -0.013896 0.055952 76.522605 0.000003 -0.000003 -39.900860 -7.800115 -5.618108 3.298140 -0.000000 -15.261637 0.000001 0.834195 -1.675505 -34.253125 0.000000 -7.370705 -0.000000 0.000001 -0.000000 0.000000 0.000000 -0.000004 0.000001 -0.000000 0.000000 0.000000 0.000001 -0.000004 0.000000 0.000001 0.000000 0.000000 11.315659 -0.000002 -0.000009 8.214342 -7.390505 -61.502889 0.000001 0.000005 -38.200314 -0.042392 0.171037 76.047367 -0.000003 -0.000002 -39.900856 11.666938 8.572554 5.951457 -0.000001 -15.261642 0.000007 -1.324079 1.645944 -33.962446 0.000005 -7.539999 -0.000001 0.000003 0.000000 0.000000 -0.000001 0.000001 -0.000002 -0.000003 0.000001 -0.000002 0.000003 0.000000 -0.000007 -0.000001 0.000000 -0.000001 
3.559784 -7.607656 72.524910 23.373385 1.075788 14.102381 0.000005 2.080105 8.814252 -0.457885 -3.944669 15.766894 0.000000 -0.000001 8.844147 -0.721342 -2.218972 16.445328 -0.000002 -0.000003 11.682262 1.248110 -1.430727 8.317099 -0.000005 -0.000020 11.746700 1.213004 0.099188 1.355399 0.000004 0.000002 17.658281 -2.318915 -7.222145 24.650825 0.000005 -0.000000 5.101513 -1.476961 1.958843 4.016791 -0.000010 -0.000007 5.101519 3.734588 -2.667465 -16.750267 -0.000001 0.000011 11.655089 0.000001 -0.000001 0.000000 -2.625421 -0.000002 11.175215 14.113292 -79.898856 -0.278721 -0.000016 0.000004 10.434738 -69.355906 -11.425285 47.656812 0.000003 -0.000012 29.628416 4.216659 2.175536 70.805914 -0.000003 -0.000008 22.857643 -18.200000 40.275098 14.496236 -2.867321 -2.944286 3.959577 31.491076 -19.956136 47.542420 0.000006 -0.000002 3.350405 -18.670566 10.260304 -32.719065 -0.000002 0.000002 3.756532 -12.336295 8.289334 -22.315526 0.000001 0.000005 3.147338 -0.000000 0.000000 0.000002 -0.086763 -2.345283 10.030918 -17.468082 -34.091680 22.117361 -0.000005 -0.000004 4.061103 -0.409504 -26.022816 3.934496 0.000003 0.000005 3.248869 -0.909514 -26.022821 3.934478 -0.000001 0.000004 2.639710 0.000000 0.000002 0.000001 0.104098 -0.006778 9.502993 -10.426379 -31.553001 16.126336 -0.000002 0.000008 4.568746 0.238575 -23.085710 1.279998 0.000006 0.000002 3.654986 -0.261441 -23.085712 1.280026 0.000001 0.000003 2.741241 0.000001 -0.000000 -0.000000 0.086745 2.267437 8.921766 0.277959 -25.269776 9.941040 -0.000007 -0.000001 4.061112 -0.833095 -17.337351 -1.094068 -0.000006 0.000001 3.655019 0.166927 -17.337267 -1.094129 -0.000004 -0.000002 2.741258 0.000000 0.000002 0.000001 -0.173506 4.467195 7.976998 10.474480 -18.498165 4.872506 -0.000010 0.000004 3.350430 -1.759147 -11.807333 -2.328831 -0.000001 -0.000008 2.842771 0.240865 -11.807491 -2.328830 -0.000001 -0.000007 2.639722 0.000002 -0.000003 0.000002 -0.000003 0.000001 0.000014 0.000001 0.000000 0.000002 -0.000006 -0.000004 0.000013 -0.000001 -0.000003 -0.000000 2.625404 0.000002 11.175226 -12.329024 73.159126 -0.766645 0.000019 0.000002 10.813636 63.098503 -2.210216 63.079727 -0.000007 -0.000003 28.724779 -0.097917 -1.428245 66.907666 0.644382 0.328866 25.716156 24.550842 -42.512262 10.433613 2.867325 -2.944296 3.959581 -31.510948 18.686303 49.385242 0.000005 0.000004 3.350401 15.831318 -9.532174 -28.101425 -0.000003 0.000000 3.756527 10.488706 -7.464896 -19.195033 -0.000000 -0.000000 3.100006 0.000000 0.000001 0.000001 0.086770 -2.345284 10.030925 -3.644682 33.267594 3.338214 0.000006 0.000002 4.061131 -0.184308 22.812624 -3.389134 0.000006 -0.000001 3.248883 -0.683920 22.812625 -3.388990 0.000005 -0.000002 2.639709 -0.000000 -0.000000 0.000001 -0.104091 -0.006771 9.502954 1.639318 29.497593 6.807886 0.000006 -0.000001 4.568732 0.293726 20.631039 -1.131095 0.000009 -0.000001 3.654972 -0.205748 20.631020 -1.130572 -0.000004 0.000001 2.741258 -0.000001 0.000000 -0.000002 -0.086734 2.267438 8.921721 9.105346 22.259455 12.078204 0.000002 -0.000002 4.061131 -0.850891 16.424530 1.033071 0.000003 0.000001 3.655036 0.148740 16.424428 1.032966 0.000002 -0.000004 2.741243 -0.000000 0.000001 -0.000002 0.173511 4.467200 7.977027 16.220704 13.994811 14.660805 -0.000000 -0.000000 3.350424 -1.759526 11.801547 2.327602 0.000003 0.000002 2.842766 0.240346 11.801531 2.327573 -0.000002 -0.000002 2.639694 -0.000000 0.000001 0.000002 0.000005 -0.000002 0.000016 -0.000000 -0.000000 -0.000003 0.000002 -0.000001 -0.000014 0.000002 0.000002 -0.000000 -11.289939 0.000001 -0.000002 -19.064335 2.106274 -57.007406 -0.000003 0.000004 -38.200321 -0.015405 0.059318 75.887712 0.000002 -0.000000 -39.900856 -7.891477 -5.615573 3.324117 0.000000 -15.261642 -0.000001 0.822771 -1.679272 -34.164596 0.000004 -7.370709 -0.000001 0.000001 0.000000 -0.000000 -0.000000 -0.000003 -0.000003 -0.000000 -0.000000 0.000001 0.000000 0.000001 0.000004 -0.000000 0.000000 -0.000001 11.315663 -0.000002 0.000007 8.267735 -7.541967 -60.638529 0.000004 0.000013 -38.200314 -0.037908 0.147030 75.509381 -0.000001 -0.000007 -39.900856 11.615881 8.561004 5.953350 -0.000004 -15.261640 0.000010 -1.321066 1.632723 -33.912050 0.000003 -7.539992 0.000000 -0.000003 0.000001 0.000000 -0.000002 0.000005 0.000000 -0.000002 -0.000001 -0.000000 0.000002 0.000000 -0.000000 0.000001 0.000000 0.000001 
